<svg xmlns="http://www.w3.org/2000/svg" xmlns:xlink="http://www.w3.org/1999/xlink" width="160" zoomAndPan="magnify" viewBox="0 0 120 183.750001" height="245" preserveAspectRatio="xMidYMid meet" version="1.0"><path fill="#2b5592" d="M 65.265625 134.886719 C 63.414062 126.492188 56.980469 118.898438 47.996094 120.59375 C 45.820312 121.007812 14.878906 130.535156 14.992188 131.300781 C 15.410156 133.738281 15.828125 136.175781 16.242188 138.613281 C 16.460938 139.894531 16.164062 140.109375 17.535156 140.0625 C 19.714844 140.003906 21.890625 139.871094 24.070312 139.730469 C 27.226562 139.527344 33.789062 139.09375 40.234375 138.332031 C 52.238281 136.914062 65.265625 134.886719 65.265625 134.886719 " fill-opacity="1" fill-rule="nonzero"/><path fill="#9c1734" d="M 69.582031 91.632812 C 68.792969 94.671875 65.679688 96.5 62.636719 95.707031 C 59.597656 94.910156 57.773438 91.800781 58.566406 88.753906 C 59.359375 85.707031 62.46875 83.882812 65.511719 84.675781 C 68.554688 85.472656 70.378906 88.582031 69.582031 91.632812 " fill-opacity="1" fill-rule="nonzero"/><path fill="#9c1734" d="M 78.753906 94.023438 C 77.964844 97.070312 74.855469 98.894531 71.8125 98.097656 C 68.769531 97.304688 66.945312 94.191406 67.738281 91.148438 C 68.535156 88.101562 71.644531 86.277344 74.6875 87.074219 C 77.726562 87.867188 79.550781 90.976562 78.753906 94.023438 " fill-opacity="1" fill-rule="nonzero"/><path fill="#e39a6e" d="M 71.046875 98.445312 L 62.921875 96.324219 L 64.828125 88.992188 L 72.960938 91.117188 L 71.046875 98.445312 " fill-opacity="1" fill-rule="nonzero"/><path fill="#2b5592" d="M 74.300781 144.234375 C 75.84375 139.140625 77.882812 133.769531 76.460938 128.398438 C 73.109375 115.484375 47.78125 111.253906 43.25 126.292969 C 43.003906 127.121094 41.359375 132.105469 40.234375 138.332031 C 41.960938 137.964844 47.90625 137.464844 52.460938 137.160156 C 56.363281 136.894531 59.0625 136.777344 59.347656 136.957031 C 60.054688 137.394531 59.886719 139.3125 59.679688 142.941406 C 59.238281 150.546875 58.527344 158.132812 57.964844 165.726562 C 57.933594 166.1875 65.460938 168.746094 66.339844 168.378906 C 68.589844 167.449219 69.914062 159.328125 70.539062 157.246094 C 71.839844 152.925781 72.988281 148.554688 74.300781 144.234375 " fill-opacity="1" fill-rule="nonzero"/><path fill="#3871c1" d="M 65.882812 163.214844 C 65.480469 164.773438 66.214844 166.347656 67.5625 167.082031 C 68.46875 165.523438 69.179688 162.917969 69.707031 160.707031 C 67.996094 160.453125 66.332031 161.503906 65.882812 163.214844 " fill-opacity="1" fill-rule="nonzero"/><path fill="#3871c1" d="M 62.804688 154.25 C 61.039062 153.789062 59.25 154.800781 58.695312 156.515625 C 58.652344 157.050781 58.609375 157.589844 58.5625 158.125 C 58.777344 159.421875 59.722656 160.53125 61.074219 160.886719 C 62.90625 161.363281 64.777344 160.265625 65.253906 158.433594 C 65.730469 156.601562 64.632812 154.730469 62.804688 154.25 " fill-opacity="1" fill-rule="nonzero"/><path fill="#3871c1" d="M 66.933594 151.226562 C 66.453125 153.058594 67.550781 154.929688 69.382812 155.410156 C 69.960938 155.558594 70.539062 155.539062 71.078125 155.402344 C 71.632812 153.511719 72.167969 151.613281 72.703125 149.71875 C 72.28125 149.28125 71.746094 148.941406 71.113281 148.773438 C 69.28125 148.292969 67.410156 149.390625 66.933594 151.226562 " fill-opacity="1" fill-rule="nonzero"/><path fill="#3871c1" d="M 67.171875 146.410156 C 67.652344 144.574219 66.550781 142.699219 64.722656 142.222656 C 62.890625 141.742188 61.019531 142.839844 60.542969 144.675781 C 60.0625 146.507812 61.164062 148.378906 62.992188 148.859375 C 64.824219 149.335938 66.695312 148.238281 67.171875 146.410156 " fill-opacity="1" fill-rule="nonzero"/><path fill="#3871c1" d="M 71.679688 140.328125 C 73.511719 140.808594 75.382812 139.710938 75.859375 137.875 C 76.335938 136.042969 75.242188 134.171875 73.410156 133.695312 C 71.578125 133.214844 69.707031 134.316406 69.230469 136.148438 C 68.75 137.980469 69.847656 139.851562 71.679688 140.328125 " fill-opacity="1" fill-rule="nonzero"/><path fill="#3871c1" d="M 75.597656 131.558594 C 76.046875 131.671875 76.496094 131.695312 76.925781 131.632812 C 76.886719 130.554688 76.746094 129.476562 76.460938 128.398438 C 76.160156 127.238281 75.671875 126.148438 75.046875 125.132812 C 74.140625 125.546875 73.417969 126.335938 73.148438 127.371094 C 72.671875 129.207031 73.769531 131.082031 75.597656 131.558594 " fill-opacity="1" fill-rule="nonzero"/><path fill="#3871c1" d="M 66.15625 130.804688 C 66.636719 128.972656 65.535156 127.097656 63.707031 126.621094 C 61.875 126.144531 60.003906 127.242188 59.527344 129.074219 C 59.050781 130.90625 60.148438 132.777344 61.976562 133.257812 C 63.804688 133.734375 65.679688 132.636719 66.15625 130.804688 " fill-opacity="1" fill-rule="nonzero"/><path fill="#3871c1" d="M 59.078125 136.894531 C 58.730469 135.820312 57.84375 134.847656 56.664062 134.539062 C 54.835938 134.0625 52.964844 135.160156 52.488281 136.992188 C 52.464844 137.074219 52.476562 137.074219 52.460938 137.160156 L 59.078125 136.894531 " fill-opacity="1" fill-rule="nonzero"/><path fill="#3871c1" d="M 51.636719 130.558594 C 53.464844 131.035156 55.335938 129.9375 55.8125 128.101562 C 56.292969 126.269531 55.195312 124.398438 53.363281 123.921875 C 51.535156 123.441406 49.660156 124.539062 49.183594 126.371094 C 48.707031 128.203125 49.804688 130.082031 51.636719 130.558594 " fill-opacity="1" fill-rule="nonzero"/><path fill="#f58e17" d="M 58.800781 93.539062 C 57.523438 95.5 44.15625 118.5 46.320312 121.347656 C 48.488281 124.195312 74.445312 130.484375 76.40625 129.242188 C 77.808594 128.34375 76.925781 99.421875 76.921875 98.597656 C 76.917969 97.773438 77.050781 96.945312 76.816406 96.730469 C 76.558594 96.488281 75.035156 96.136719 74.6875 96.035156 C 73.4375 95.671875 72.175781 95.375 70.925781 95.019531 C 68.054688 94.203125 64.914062 93.59375 62.023438 92.84375 C 61.285156 92.65625 60.550781 92.3125 60.003906 92.390625 C 59.726562 92.4375 59.386719 92.636719 58.800781 93.539062 " fill-opacity="1" fill-rule="nonzero"/><path fill="#f9a979" d="M 100.253906 74.269531 C 100.253906 74.269531 99.976562 71.914062 102.632812 70.464844 C 104.019531 69.710938 106.164062 70.527344 107.140625 72.3125 C 108.1875 74.222656 106.375 76.730469 104.519531 77.273438 L 100.253906 74.269531 " fill-opacity="1" fill-rule="nonzero"/><path fill="#f58e17" d="M 72.730469 100.628906 C 72.730469 100.628906 73.257812 100.316406 74.179688 99.769531 C 75.121094 99.21875 76.449219 98.402344 78.042969 97.441406 C 79.628906 96.484375 81.457031 95.316406 83.332031 94.0625 C 84.265625 93.4375 85.203125 92.773438 86.074219 92.113281 C 86.507812 91.785156 86.921875 91.449219 87.261719 91.144531 C 87.441406 90.988281 87.585938 90.847656 87.703125 90.726562 L 87.78125 90.644531 L 87.820312 90.605469 L 87.828125 90.601562 C 87.804688 90.628906 87.882812 90.535156 87.777344 90.660156 L 87.796875 90.640625 L 87.835938 90.59375 L 88.148438 90.230469 L 88.769531 89.503906 L 89.28125 88.867188 C 89.613281 88.464844 89.964844 87.976562 90.3125 87.523438 C 90.988281 86.597656 91.640625 85.652344 92.246094 84.703125 C 93.472656 82.8125 94.585938 80.96875 95.550781 79.316406 C 96.511719 77.667969 97.398438 76.25 98.078125 75.214844 C 98.421875 74.699219 98.710938 74.292969 98.929688 74.003906 C 99.140625 73.722656 99.253906 73.570312 99.253906 73.570312 L 105.527344 77.96875 C 105.527344 77.96875 105.464844 78.082031 105.34375 78.296875 C 105.222656 78.5 105.046875 78.839844 104.808594 79.273438 C 104.335938 80.15625 103.6875 81.53125 102.839844 83.253906 C 102.414062 84.117188 101.949219 85.066406 101.429688 86.074219 C 100.90625 87.085938 100.355469 88.164062 99.714844 89.257812 C 99.082031 90.359375 98.386719 91.488281 97.636719 92.625 C 97.253906 93.195312 96.886719 93.753906 96.441406 94.355469 L 95.796875 95.238281 L 94.917969 96.375 L 94.882812 96.421875 L 94.78125 96.542969 L 94.660156 96.683594 L 94.417969 96.957031 C 94.101562 97.300781 93.796875 97.609375 93.503906 97.882812 C 92.914062 98.441406 92.355469 98.917969 91.800781 99.367188 C 90.699219 100.261719 89.625 101.035156 88.582031 101.757812 C 86.507812 103.203125 84.542969 104.398438 82.863281 105.421875 C 81.183594 106.445312 79.75 107.222656 78.75 107.78125 C 78.25 108.0625 77.851562 108.269531 77.578125 108.417969 C 77.296875 108.5625 77.148438 108.644531 77.148438 108.644531 L 72.730469 100.628906 " fill-opacity="1" fill-rule="nonzero"/><path fill="#f9a979" d="M 42.46875 61.921875 C 42.46875 61.921875 44.523438 60.738281 44.101562 57.746094 C 43.882812 56.183594 41.945312 54.945312 39.933594 55.222656 C 37.773438 55.519531 36.84375 58.472656 37.515625 60.285156 L 42.46875 61.921875 " fill-opacity="1" fill-rule="nonzero"/><path fill="#f58e17" d="M 56.132812 102.316406 C 56.132812 102.316406 55.949219 102.234375 55.605469 102.078125 C 55.277344 101.925781 54.792969 101.707031 54.195312 101.417969 C 52.996094 100.828125 51.285156 100.003906 49.277344 98.878906 C 48.273438 98.320312 47.1875 97.699219 46.042969 97.003906 C 44.898438 96.308594 43.695312 95.539062 42.464844 94.644531 C 41.230469 93.746094 39.957031 92.769531 38.632812 91.464844 C 37.972656 90.796875 37.292969 90.070312 36.597656 88.996094 C 36.257812 88.457031 35.90625 87.820312 35.621094 86.960938 C 35.546875 86.753906 35.484375 86.511719 35.429688 86.269531 L 35.390625 86.085938 L 35.363281 85.925781 L 35.339844 85.789062 L 35.257812 85.246094 L 35.171875 84.699219 C 35.144531 84.523438 35.117188 84.339844 35.089844 84.125 L 34.933594 82.898438 C 34.839844 82.085938 34.773438 81.332031 34.703125 80.554688 C 34.589844 79.019531 34.503906 77.515625 34.480469 76.058594 C 34.433594 74.605469 34.476562 73.199219 34.515625 71.867188 C 34.546875 71.203125 34.582031 70.550781 34.613281 69.921875 C 34.660156 69.292969 34.707031 68.679688 34.753906 68.097656 C 34.855469 66.921875 35 65.839844 35.152344 64.867188 C 35.238281 64.378906 35.304688 63.929688 35.394531 63.496094 C 35.480469 63.0625 35.566406 62.664062 35.640625 62.304688 C 35.828125 61.558594 35.980469 60.984375 36.136719 60.539062 C 36.28125 60.117188 36.359375 59.890625 36.359375 59.890625 L 43.628906 62.3125 C 43.628906 62.3125 43.601562 62.4375 43.554688 62.675781 C 43.492188 62.886719 43.441406 63.304688 43.355469 63.8125 C 43.320312 64.085938 43.285156 64.386719 43.246094 64.71875 C 43.207031 65.050781 43.183594 65.433594 43.144531 65.832031 C 43.089844 66.636719 43.054688 67.570312 43.019531 68.59375 C 43.011719 69.109375 43.007812 69.644531 43 70.199219 C 43.007812 70.761719 43.015625 71.339844 43.023438 71.933594 C 43.058594 73.125 43.125 74.386719 43.210938 75.679688 C 43.285156 76.980469 43.425781 78.3125 43.582031 79.65625 C 43.671875 80.320312 43.761719 81.015625 43.867188 81.652344 L 44.027344 82.601562 C 44.046875 82.75 44.082031 82.929688 44.121094 83.113281 L 44.230469 83.652344 L 44.335938 84.195312 L 44.363281 84.328125 L 44.367188 84.363281 L 44.371094 84.378906 C 44.375 84.390625 44.367188 84.363281 44.363281 84.335938 C 44.359375 84.300781 44.355469 84.269531 44.359375 84.304688 L 44.351562 84.253906 C 44.339844 84.191406 44.316406 84.125 44.3125 84.09375 C 44.257812 83.925781 44.253906 83.945312 44.304688 84.019531 C 44.40625 84.175781 44.714844 84.535156 45.082031 84.878906 C 45.832031 85.59375 46.824219 86.351562 47.832031 87.050781 C 49.875 88.441406 51.972656 89.710938 53.808594 90.730469 C 55.648438 91.75 57.207031 92.597656 58.304688 93.15625 C 59.382812 93.707031 60 94.019531 60 94.019531 L 56.132812 102.316406 " fill-opacity="1" fill-rule="nonzero"/><path fill="#9c1734" d="M 60.90625 75.789062 C 60.113281 78.835938 57.003906 80.660156 53.960938 79.867188 C 50.917969 79.074219 49.09375 75.957031 49.886719 72.914062 C 50.683594 69.867188 53.792969 68.042969 56.835938 68.835938 C 59.878906 69.632812 61.699219 72.742188 60.90625 75.789062 " fill-opacity="1" fill-rule="nonzero"/><path fill="#9c1734" d="M 63.34375 85.316406 C 62.550781 88.363281 59.4375 90.1875 56.394531 89.394531 C 53.355469 88.597656 51.53125 85.488281 52.328125 82.441406 C 53.117188 79.398438 56.230469 77.570312 59.269531 78.367188 C 62.3125 79.160156 64.136719 82.273438 63.34375 85.316406 " fill-opacity="1" fill-rule="nonzero"/><path fill="#9c1734" d="M 86.882812 92.921875 C 86.089844 95.964844 82.980469 97.789062 79.9375 96.996094 C 76.894531 96.199219 75.074219 93.089844 75.867188 90.042969 C 76.660156 86.996094 79.765625 85.171875 82.8125 85.96875 C 85.855469 86.761719 87.675781 89.875 86.882812 92.921875 " fill-opacity="1" fill-rule="nonzero"/><path fill="#9c1734" d="M 92.988281 88.085938 C 92.195312 91.128906 89.085938 92.953125 86.046875 92.164062 C 83 91.367188 81.175781 88.253906 81.972656 85.210938 C 82.761719 82.164062 85.875 80.339844 88.917969 81.132812 C 91.960938 81.929688 93.78125 85.039062 92.988281 88.085938 " fill-opacity="1" fill-rule="nonzero"/><path fill="#f9a979" d="M 86.460938 77.296875 C 84.109375 86.332031 75.449219 95.089844 68.082031 93.167969 C 60.71875 91.246094 57.433594 79.367188 59.789062 70.332031 C 62.144531 61.296875 69.246094 58.523438 76.609375 60.445312 C 83.972656 62.371094 88.816406 68.261719 86.460938 77.296875 " fill-opacity="1" fill-rule="nonzero"/><path fill="#f9a979" d="M 61.65625 75.320312 C 61.632812 77.511719 60.414062 79.277344 58.941406 79.257812 C 57.464844 79.242188 57.710938 77.789062 57.125 76.109375 C 56.421875 74.078125 57.554688 71.300781 59.035156 71.316406 C 60.511719 71.335938 61.683594 73.128906 61.65625 75.320312 " fill-opacity="1" fill-rule="nonzero"/><path fill="#f9a979" d="M 82.398438 80.734375 C 81.347656 82.660156 81.550781 84.796875 82.847656 85.5 C 84.144531 86.207031 84.640625 84.820312 85.96875 83.640625 C 87.574219 82.210938 87.9375 79.234375 86.640625 78.527344 C 85.34375 77.820312 83.445312 78.808594 82.398438 80.734375 " fill-opacity="1" fill-rule="nonzero"/><path fill="#9c1734" d="M 81.761719 57.710938 C 80.964844 60.757812 77.855469 62.582031 74.8125 61.789062 C 71.769531 60.992188 69.945312 57.878906 70.738281 54.835938 C 71.535156 51.789062 74.644531 49.964844 77.6875 50.757812 C 80.730469 51.554688 82.550781 54.667969 81.761719 57.710938 " fill-opacity="1" fill-rule="nonzero"/><path fill="#9c1734" d="M 72.402344 59.847656 C 71.609375 62.894531 68.5 64.71875 65.457031 63.925781 C 62.417969 63.132812 60.59375 60.015625 61.386719 56.972656 C 62.179688 53.925781 65.289062 52.101562 68.332031 52.898438 C 71.375 53.691406 73.195312 56.804688 72.402344 59.847656 " fill-opacity="1" fill-rule="nonzero"/><path fill="#9c1734" d="M 63.59375 65.472656 C 62.800781 68.515625 59.691406 70.34375 56.648438 69.546875 C 53.605469 68.753906 51.785156 65.640625 52.578125 62.59375 C 53.371094 59.550781 56.480469 57.726562 59.523438 58.523438 C 62.566406 59.3125 64.386719 62.429688 63.59375 65.472656 " fill-opacity="1" fill-rule="nonzero"/><path fill="#9c1734" d="M 68.730469 68.34375 C 67.9375 71.390625 64.828125 73.214844 61.785156 72.417969 C 58.742188 71.625 56.921875 68.511719 57.710938 65.46875 C 58.507812 62.421875 61.617188 60.597656 64.660156 61.390625 C 67.699219 62.183594 69.523438 65.296875 68.730469 68.34375 " fill-opacity="1" fill-rule="nonzero"/><path fill="#9c1734" d="M 77.996094 66.84375 C 77.203125 69.886719 74.09375 71.714844 71.050781 70.917969 C 68.007812 70.125 66.183594 67.011719 66.980469 63.96875 C 67.769531 60.921875 70.882812 59.097656 73.925781 59.890625 C 76.96875 60.6875 78.789062 63.800781 77.996094 66.84375 " fill-opacity="1" fill-rule="nonzero"/><path fill="#9c1734" d="M 83.445312 63.136719 C 82.652344 66.179688 79.542969 68.003906 76.503906 67.210938 C 73.457031 66.417969 71.636719 63.304688 72.429688 60.261719 C 73.222656 57.214844 76.332031 55.390625 79.375 56.183594 C 82.414062 56.980469 84.238281 60.089844 83.445312 63.136719 " fill-opacity="1" fill-rule="nonzero"/><path fill="#9c1734" d="M 87.792969 69.398438 C 86.996094 72.445312 83.890625 74.269531 80.847656 73.476562 C 77.800781 72.679688 75.976562 69.570312 76.773438 66.523438 C 77.566406 63.480469 80.675781 61.65625 83.71875 62.449219 C 86.761719 63.246094 88.585938 66.355469 87.792969 69.398438 " fill-opacity="1" fill-rule="nonzero"/><path fill="#9c1734" d="M 92.8125 75.511719 C 92.019531 78.554688 88.90625 80.382812 85.863281 79.585938 C 82.824219 78.792969 81 75.679688 81.792969 72.632812 C 82.585938 69.589844 85.699219 67.761719 88.742188 68.558594 C 91.785156 69.355469 93.605469 72.464844 92.8125 75.511719 " fill-opacity="1" fill-rule="nonzero"/><path fill="#9c1734" d="M 91.445312 61.605469 C 90.648438 64.648438 87.539062 66.472656 84.496094 65.679688 C 81.457031 64.882812 79.632812 61.773438 80.425781 58.726562 C 81.21875 55.679688 84.328125 53.855469 87.371094 54.648438 C 90.414062 55.445312 92.234375 58.558594 91.445312 61.605469 " fill-opacity="1" fill-rule="nonzero"/><path fill="#9c1734" d="M 96.839844 69.792969 C 96.046875 72.839844 92.9375 74.664062 89.894531 73.871094 C 86.851562 73.074219 85.027344 69.960938 85.820312 66.914062 C 86.613281 63.871094 89.726562 62.046875 92.769531 62.84375 C 95.8125 63.636719 97.636719 66.746094 96.839844 69.792969 " fill-opacity="1" fill-rule="nonzero"/><path fill="#9c1734" d="M 97.65625 79.496094 C 96.863281 82.542969 93.753906 84.367188 90.710938 83.574219 C 87.667969 82.777344 85.84375 79.664062 86.640625 76.621094 C 87.300781 74.082031 89.972656 71.597656 93.585938 72.542969 C 96.628906 73.335938 98.449219 76.449219 97.65625 79.496094 " fill-opacity="1" fill-rule="nonzero"/><path fill="#f5c116" d="M 77.117188 96.636719 C 77.394531 97.246094 73.992188 108.75 77.945312 109.1875 C 78.300781 111.132812 78.296875 121.296875 77.546875 124.765625 C 77.125 126.578125 68.460938 127.210938 68.460938 127.210938 L 61.925781 120.761719 L 65.421875 106.457031 C 65.421875 106.457031 72.15625 103.101562 73.910156 95.796875 C 73.910156 95.796875 76.84375 96.027344 77.117188 96.636719 " fill-opacity="1" fill-rule="nonzero"/><path fill="#bdbcbd" d="M 46.941406 116.730469 C 46.941406 116.679688 46.945312 116.632812 46.960938 116.589844 C 47.421875 115.183594 51.988281 104.28125 53.246094 102.753906 C 53.335938 102.789062 53.421875 102.820312 53.507812 102.839844 C 51.003906 107.492188 48.289062 112.910156 46.941406 116.730469 " fill-opacity="1" fill-rule="nonzero"/><path fill="#751024" d="M 63.714844 93.261719 C 63.144531 93.128906 62.578125 92.988281 62.023438 92.84375 C 61.496094 92.707031 60.964844 92.492188 60.507812 92.414062 C 60.527344 92.34375 60.539062 92.308594 60.539062 92.308594 L 63.746094 93.148438 L 63.742188 93.164062 C 63.734375 93.195312 63.722656 93.230469 63.714844 93.261719 " fill-opacity="1" fill-rule="nonzero"/><path fill="#a97251" d="M 63.742188 93.164062 L 63.746094 93.148438 C 63.746094 93.152344 63.742188 93.15625 63.742188 93.164062 " fill-opacity="1" fill-rule="nonzero"/><path fill="#b66810" d="M 54.578125 123.859375 C 54.578125 123.859375 46.980469 118.347656 46.941406 116.730469 C 48.289062 112.910156 51.003906 107.492188 53.507812 102.839844 C 53.640625 102.875 53.777344 102.890625 53.910156 102.890625 C 54.492188 102.890625 55.066406 102.589844 55.621094 102.082031 C 55.957031 102.234375 56.132812 102.316406 56.132812 102.316406 L 57.117188 100.203125 C 58.269531 98.382812 59.238281 96.015625 59.847656 94.347656 L 60 94.019531 C 60 94.019531 59.988281 94.015625 59.972656 94.003906 C 60.25 93.222656 60.4375 92.636719 60.507812 92.414062 C 60.964844 92.492188 61.496094 92.707031 62.023438 92.84375 C 62.578125 92.988281 63.144531 93.128906 63.714844 93.261719 C 62.023438 99.480469 64.941406 104.929688 65.753906 106.277344 C 65.539062 106.398438 65.421875 106.457031 65.421875 106.457031 L 61.929688 120.75 L 54.578125 123.859375 " fill-opacity="1" fill-rule="nonzero"/><path fill="#b66810" d="M 56.132812 102.316406 C 56.132812 102.316406 55.957031 102.234375 55.621094 102.082031 C 56.140625 101.605469 56.644531 100.953125 57.117188 100.203125 L 56.132812 102.316406 M 59.847656 94.347656 C 59.890625 94.230469 59.929688 94.117188 59.972656 94.003906 C 59.988281 94.015625 60 94.019531 60 94.019531 L 59.847656 94.347656 " fill-opacity="1" fill-rule="nonzero"/><path fill="#b58e10" d="M 61.929688 120.75 L 65.421875 106.457031 C 65.421875 106.457031 65.539062 106.398438 65.753906 106.277344 C 65.878906 106.484375 65.953125 106.597656 65.953125 106.597656 L 66.726562 115.039062 L 62.152344 120.65625 L 61.929688 120.75 " fill-opacity="1" fill-rule="nonzero"/><path fill="#f5c116" d="M 60.539062 92.308594 C 59.671875 92.78125 56.910156 104.300781 53.246094 102.753906 C 51.988281 104.28125 47.421875 115.183594 46.960938 116.589844 C 46.5 118 54.578125 123.859375 54.578125 123.859375 L 62.152344 120.65625 L 66.074219 114.871094 L 65.953125 106.597656 C 65.953125 106.597656 61.71875 100.375 63.746094 93.148438 C 63.746094 93.148438 61.410156 91.835938 60.539062 92.308594 " fill-opacity="1" fill-rule="nonzero"/><path fill="#d51742" d="M 65.527344 109.3125 C 65.414062 109.753906 64.964844 110.019531 64.523438 109.902344 C 64.082031 109.789062 63.820312 109.339844 63.9375 108.898438 C 64.046875 108.457031 64.5 108.191406 64.9375 108.308594 C 65.378906 108.421875 65.644531 108.871094 65.527344 109.3125 " fill-opacity="1" fill-rule="nonzero"/><path fill="#d51742" d="M 64.761719 113.507812 C 64.648438 113.949219 64.199219 114.210938 63.757812 114.097656 C 63.316406 113.980469 63.054688 113.53125 63.167969 113.09375 C 63.285156 112.648438 63.734375 112.386719 64.171875 112.5 C 64.613281 112.617188 64.878906 113.066406 64.761719 113.507812 " fill-opacity="1" fill-rule="nonzero"/><path fill="#d51742" d="M 63.417969 117.414062 C 63.304688 117.855469 62.851562 118.117188 62.410156 118.003906 C 61.972656 117.886719 61.707031 117.4375 61.824219 116.996094 C 61.9375 116.554688 62.390625 116.292969 62.828125 116.40625 C 63.269531 116.519531 63.535156 116.972656 63.417969 117.414062 " fill-opacity="1" fill-rule="nonzero"/><path fill="#d51742" d="M 67.332031 96.015625 C 67.769531 94.976562 65.890625 92.757812 64.777344 91.574219 C 64.105469 90.859375 62.789062 89.96875 61.792969 90.605469 C 61.148438 91.019531 60.941406 92.023438 60.84375 92.71875 C 60.675781 93.964844 59.6875 96.207031 60.96875 97.09375 C 62.632812 98.242188 66.894531 97.0625 67.332031 96.015625 " fill-opacity="1" fill-rule="nonzero"/><path fill="#d51742" d="M 68.34375 96.28125 C 68.46875 95.15625 71.191406 94.140625 72.742188 93.652344 C 73.675781 93.355469 75.257812 93.222656 75.816406 94.269531 C 76.175781 94.941406 75.871094 95.917969 75.613281 96.574219 C 75.152344 97.746094 74.917969 100.183594 73.367188 100.332031 C 71.359375 100.519531 68.214844 97.40625 68.34375 96.28125 " fill-opacity="1" fill-rule="nonzero"/><path fill="#d51742" d="M 69.636719 96.84375 C 69.464844 97.507812 68.785156 97.90625 68.117188 97.734375 L 66.820312 97.394531 C 66.152344 97.21875 65.757812 96.539062 65.929688 95.871094 L 66.269531 94.570312 C 66.441406 93.910156 67.121094 93.507812 67.789062 93.679688 L 69.085938 94.019531 C 69.75 94.195312 70.148438 94.875 69.976562 95.539062 L 69.636719 96.84375 " fill-opacity="1" fill-rule="nonzero"/><path fill="#9c1734" d="M 15.589844 130.839844 C 11.804688 126.96875 18.898438 124.300781 18.078125 118.152344 C 17.421875 113.246094 12.402344 110.269531 7.835938 112.394531 C 1.230469 115.460938 2.613281 123.703125 4.117188 129.488281 C 5.695312 135.550781 6.503906 140.320312 7.183594 140.710938 C 7.859375 141.097656 12.328125 142.316406 16.613281 140.554688 C 17.898438 140.027344 16.441406 138.292969 15.78125 135.351562 C 15.019531 131.949219 16.109375 131.371094 15.589844 130.839844 " fill-opacity="1" fill-rule="nonzero"/><path fill="#2e2a2b" d="M 7.441406 112.351562 C 7.195312 112.4375 6.941406 112.53125 6.691406 112.648438 C 0.0898438 115.722656 1.472656 123.960938 2.972656 129.746094 C 4.546875 135.808594 5.445312 139.902344 6.039062 140.96875 C 6.628906 142.035156 7.71875 141.015625 7.183594 140.710938 C 6.503906 140.320312 5.695312 135.550781 4.117188 129.488281 C 2.613281 123.703125 1.230469 115.460938 7.835938 112.394531 C 8.085938 112.277344 8.335938 112.183594 8.585938 112.097656 C 8.140625 112.148438 7.695312 112.246094 7.246094 112.386719 C 7.3125 112.375 7.378906 112.363281 7.441406 112.351562 " fill-opacity="1" fill-rule="nonzero"/><path fill="#d51742" d="M 7.304688 122.601562 C 8.609375 123.597656 9.667969 124.96875 11 125.90625 C 12.9375 127.265625 14.53125 126.304688 15.960938 124.96875 C 17.117188 123.136719 18.460938 121.023438 18.078125 118.152344 C 17.421875 113.246094 12.402344 110.269531 7.835938 112.394531 C 4.082031 114.140625 2.914062 117.558594 2.875 121.246094 C 4.445312 121.207031 5.988281 121.597656 7.304688 122.601562 " fill-opacity="1" fill-rule="nonzero"/><path fill="#2e2a2b" d="M 13.175781 128.5 C 12.859375 128.570312 12.542969 128.371094 12.472656 128.050781 C 12.402344 127.738281 12.601562 127.421875 12.917969 127.351562 C 13.234375 127.277344 13.550781 127.480469 13.621094 127.796875 C 13.695312 128.113281 13.492188 128.425781 13.175781 128.5 " fill-opacity="1" fill-rule="nonzero"/><path fill="#2e2a2b" d="M 13.503906 130.433594 C 13.1875 130.507812 12.871094 130.304688 12.800781 129.988281 C 12.730469 129.671875 12.929688 129.359375 13.246094 129.285156 C 13.5625 129.214844 13.878906 129.414062 13.945312 129.734375 C 14.015625 130.046875 13.820312 130.363281 13.503906 130.433594 " fill-opacity="1" fill-rule="nonzero"/><path fill="#2e2a2b" d="M 14.710938 131.878906 C 14.394531 131.949219 14.078125 131.75 14.007812 131.433594 C 13.9375 131.113281 14.136719 130.800781 14.453125 130.730469 C 14.769531 130.660156 15.085938 130.859375 15.160156 131.175781 C 15.226562 131.492188 15.027344 131.808594 14.710938 131.878906 " fill-opacity="1" fill-rule="nonzero"/><path fill="#9c1734" d="M 67.765625 167.488281 C 71.496094 171.410156 74.40625 164.402344 80.515625 165.4375 C 85.390625 166.257812 88.191406 171.382812 85.914062 175.878906 C 82.621094 182.378906 74.441406 180.710938 68.71875 179.011719 C 62.71875 177.226562 57.980469 176.25 57.617188 175.558594 C 57.253906 174.867188 56.191406 170.355469 58.097656 166.128906 C 58.667969 164.863281 60.347656 166.378906 63.265625 167.136719 C 66.636719 168.019531 67.25 166.949219 67.765625 167.488281 " fill-opacity="1" fill-rule="nonzero"/><path fill="#2e2a2b" d="M 85.9375 176.273438 C 85.84375 176.519531 85.746094 176.769531 85.621094 177.011719 C 82.324219 183.515625 74.144531 181.847656 68.421875 180.144531 C 62.421875 178.359375 58.367188 177.324219 57.320312 176.695312 C 56.277344 176.066406 57.332031 175.011719 57.617188 175.558594 C 57.980469 176.25 62.71875 177.226562 68.71875 179.011719 C 74.441406 180.710938 82.621094 182.378906 85.914062 175.878906 C 86.039062 175.632812 86.140625 175.386719 86.234375 175.136719 C 86.167969 175.582031 86.054688 176.023438 85.902344 176.464844 C 85.914062 176.402344 85.929688 176.339844 85.9375 176.273438 " fill-opacity="1" fill-rule="nonzero"/><path fill="#d51742" d="M 75.703125 176.058594 C 74.75 174.71875 73.417969 173.613281 72.53125 172.25 C 71.238281 170.265625 72.257812 168.703125 73.636719 167.320312 C 75.503906 166.226562 77.660156 164.953125 80.515625 165.4375 C 85.390625 166.257812 88.191406 171.382812 85.914062 175.878906 C 84.039062 179.578125 80.585938 180.628906 76.90625 180.535156 C 77 178.96875 76.660156 177.414062 75.703125 176.058594 " fill-opacity="1" fill-rule="nonzero"/><path fill="#2e2a2b" d="M 70.015625 169.980469 C 69.933594 170.296875 70.121094 170.617188 70.4375 170.699219 C 70.75 170.78125 71.070312 170.59375 71.15625 170.28125 C 71.238281 169.964844 71.046875 169.640625 70.734375 169.5625 C 70.421875 169.480469 70.101562 169.667969 70.015625 169.980469 " fill-opacity="1" fill-rule="nonzero"/><path fill="#2e2a2b" d="M 68.09375 169.585938 C 68.011719 169.902344 68.203125 170.226562 68.515625 170.304688 C 68.828125 170.390625 69.152344 170.199219 69.234375 169.886719 C 69.316406 169.574219 69.125 169.25 68.8125 169.167969 C 68.5 169.085938 68.175781 169.273438 68.09375 169.585938 " fill-opacity="1" fill-rule="nonzero"/><path fill="#2e2a2b" d="M 66.695312 168.332031 C 66.613281 168.644531 66.800781 168.964844 67.113281 169.046875 C 67.429688 169.132812 67.75 168.941406 67.832031 168.628906 C 67.917969 168.3125 67.726562 167.992188 67.414062 167.910156 C 67.097656 167.824219 66.777344 168.015625 66.695312 168.332031 " fill-opacity="1" fill-rule="nonzero"/><path fill="#35221a" d="M 68.898438 77.875 C 68.757812 78.429688 68.195312 78.757812 67.648438 78.613281 C 67.09375 78.46875 66.765625 77.910156 66.910156 77.355469 C 67.054688 76.808594 67.617188 76.476562 68.164062 76.621094 C 68.714844 76.761719 69.042969 77.328125 68.898438 77.875 " fill-opacity="1" fill-rule="nonzero"/><path fill="#35221a" d="M 76.277344 79.804688 C 76.132812 80.351562 75.574219 80.679688 75.023438 80.539062 C 74.472656 80.394531 74.140625 79.835938 74.285156 79.285156 C 74.429688 78.734375 74.992188 78.402344 75.539062 78.546875 C 76.089844 78.691406 76.417969 79.253906 76.277344 79.804688 " fill-opacity="1" fill-rule="nonzero"/><path fill="#fef1d9" d="M 76 88.910156 C 76.160156 90.617188 74.671875 91.949219 72.453125 92.34375 C 70.238281 92.738281 66.660156 92.074219 64.695312 90.320312 C 62.734375 88.566406 62.304688 86.996094 63.28125 85.589844 C 64.257812 84.167969 65.871094 84.25 67.179688 84.929688 C 68.953125 85.878906 70.90625 86.390625 72.917969 86.429688 C 74.386719 86.472656 75.839844 87.191406 76 88.910156 " fill-opacity="1" fill-rule="nonzero"/><path fill="#d51742" d="M 74.535156 84.578125 C 74.101562 86.253906 71.976562 87.15625 69.800781 86.585938 C 67.621094 86.019531 66.207031 84.195312 66.644531 82.515625 C 67.082031 80.835938 69.203125 79.9375 71.382812 80.507812 C 73.5625 81.078125 74.976562 82.898438 74.535156 84.578125 " fill-opacity="1" fill-rule="nonzero"/><path fill="#d51742" d="M 64.722656 87.546875 C 64.734375 87.59375 64.871094 88.078125 65.433594 88.660156 C 65.996094 89.242188 66.984375 89.914062 68.667969 90.359375 C 69.542969 90.59375 70.292969 90.683594 70.925781 90.683594 C 71.941406 90.683594 72.660156 90.445312 73.128906 90.199219 C 73.597656 89.949219 73.808594 89.691406 73.832031 89.660156 C 73.953125 89.507812 73.929688 89.285156 73.777344 89.164062 C 73.625 89.042969 73.402344 89.070312 73.28125 89.222656 L 73.433594 89.339844 L 73.285156 89.21875 L 73.28125 89.222656 L 73.433594 89.339844 L 73.285156 89.21875 L 73.257812 89.25 C 73.113281 89.386719 72.464844 89.976562 70.925781 89.980469 C 70.359375 89.980469 69.671875 89.898438 68.847656 89.679688 C 67.261719 89.257812 66.40625 88.648438 65.9375 88.171875 C 65.703125 87.929688 65.570312 87.71875 65.496094 87.574219 C 65.457031 87.5 65.433594 87.449219 65.417969 87.414062 L 65.40625 87.375 C 65.359375 87.1875 65.167969 87.074219 64.980469 87.117188 C 64.792969 87.164062 64.675781 87.359375 64.722656 87.546875 " fill-opacity="1" fill-rule="nonzero"/><path fill="#3871c1" d="M 36.101562 134.570312 C 37.949219 134.148438 39.101562 132.3125 38.683594 130.46875 C 38.261719 128.621094 36.425781 127.464844 34.582031 127.886719 C 32.734375 128.308594 31.582031 130.144531 32.003906 131.992188 C 32.421875 133.835938 34.257812 134.992188 36.101562 134.570312 " fill-opacity="1" fill-rule="nonzero"/><path fill="#3871c1" d="M 27.5625 127.921875 C 27.484375 127.558594 27.328125 127.230469 27.148438 126.925781 C 24.855469 127.664062 22.683594 128.378906 20.828125 129.007812 C 20.84375 129.152344 20.847656 129.300781 20.882812 129.445312 C 21.304688 131.289062 23.140625 132.445312 24.984375 132.023438 C 26.828125 131.601562 27.984375 129.765625 27.5625 127.921875 " fill-opacity="1" fill-rule="nonzero"/><path fill="#3871c1" d="M 19.664062 135.835938 C 17.816406 136.257812 16.664062 138.097656 17.082031 139.941406 C 17.09375 139.984375 17.117188 140.023438 17.125 140.066406 C 17.242188 140.070312 17.375 140.070312 17.535156 140.0625 C 19.625 140.003906 21.710938 139.878906 23.800781 139.746094 C 23.871094 139.316406 23.863281 138.867188 23.765625 138.417969 C 23.34375 136.570312 21.507812 135.417969 19.664062 135.835938 " fill-opacity="1" fill-rule="nonzero"/><path fill="#3871c1" d="M 44.324219 127.613281 C 46.167969 127.195312 47.324219 125.355469 46.902344 123.507812 C 46.683594 122.554688 46.085938 121.789062 45.304688 121.328125 C 44.019531 121.699219 42.375 122.191406 40.507812 122.757812 C 40.167969 123.4375 40.039062 124.230469 40.222656 125.035156 C 40.640625 126.878906 42.480469 128.035156 44.324219 127.613281 " fill-opacity="1" fill-rule="nonzero"/><path fill="#3871c1" d="M 41.652344 133.128906 C 42.074219 134.976562 43.910156 136.128906 45.753906 135.710938 C 47.601562 135.289062 48.753906 133.449219 48.332031 131.605469 C 47.914062 129.761719 46.078125 128.605469 44.230469 129.027344 C 42.386719 129.445312 41.234375 131.28125 41.652344 133.128906 " fill-opacity="1" fill-rule="nonzero"/><path fill="#f58e17" d="M 47.574219 41.695312 C 45.664062 45.277344 41.21875 46.628906 37.640625 44.722656 C 34.0625 42.8125 32.707031 38.359375 34.617188 34.777344 C 36.523438 31.195312 40.972656 29.84375 44.550781 31.753906 C 48.128906 33.660156 49.480469 38.113281 47.574219 41.695312 " fill-opacity="1" fill-rule="nonzero"/><path fill="#d51742" d="M 65.648438 19.234375 C 63.738281 22.816406 59.292969 24.175781 55.714844 22.265625 C 52.136719 20.355469 50.78125 15.902344 52.691406 12.320312 C 54.597656 8.738281 59.046875 7.382812 62.625 9.296875 C 66.203125 11.203125 67.558594 15.65625 65.648438 19.234375 " fill-opacity="1" fill-rule="nonzero"/><path fill="#4dc3ba" d="M 118.003906 32.410156 C 116.097656 35.992188 111.648438 37.347656 108.074219 35.4375 C 104.492188 33.527344 103.136719 29.074219 105.046875 25.492188 C 106.953125 21.914062 111.402344 20.558594 114.980469 22.46875 C 118.558594 24.375 119.910156 28.828125 118.003906 32.410156 " fill-opacity="1" fill-rule="nonzero"/><path fill="#2b5592" d="M 99.914062 12.929688 C 98.007812 16.511719 93.558594 17.867188 89.980469 15.957031 C 86.402344 14.046875 85.050781 9.597656 86.960938 6.015625 C 88.867188 2.433594 93.3125 1.078125 96.890625 2.988281 C 100.46875 4.894531 101.820312 9.347656 99.914062 12.929688 " fill-opacity="1" fill-rule="nonzero"/><path fill="#f5c116" d="M 118.003906 63.011719 C 116.097656 66.59375 111.648438 67.949219 108.070312 66.039062 C 104.492188 64.128906 103.136719 59.675781 105.046875 56.097656 C 106.953125 52.515625 111.402344 51.160156 114.980469 53.070312 C 118.558594 54.976562 119.910156 59.429688 118.003906 63.011719 " fill-opacity="1" fill-rule="nonzero"/></svg>